{
  "accessors": [
    {
      "bufferView": 2,
      "componentType": 5126,
      "count": 65532,
      "max": [
        0.530377984046936,
        0.871213972568512,
        0.575344979763031
      ],
      "min": [
        -0.5275369882583618,
        -0.9270550012588501,
        -0.17281599342823029
      ],
      "type": "VEC3"
    },
    {
      "bufferView": 2,
      "byteOffset": 786384,
      "componentType": 5126,
      "count": 65532,
      "max": [
        0.9999805688858032,
        0.9999792575836182,
        0.9999949932098389
      ],
      "min": [
        -0.9999971389770508,
        -0.9999805688858032,
        -0.9971110224723816
      ],
      "type": "VEC3"
    },
    {
      "bufferView": 1,
      "componentType": 5126,
      "count": 65532,
      "max": [
        0.9988620281219482,
        0.9974889755249023
      ],
      "min": [
        6.299999949987978e-05,
        0.0006960000027902424
      ],
      "type": "VEC2"
    },
    {
      "bufferView": 0,
      "componentType": 5125,
      "count": 300441,
      "type": "SCALAR"
    },
    {
      "bufferView": 2,
      "byteOffset": 1572768,
      "componentType": 5126,
      "count": 65532,
      "max": [
        0.5332130193710327,
        0.8515110015869141,
        0.6091200113296509
      ],
      "min": [
        -0.5265160202980042,
        -0.9268680214881897,
        -0.17281599342823029
      ],
      "type": "VEC3"
    },
    {
      "bufferView": 2,
      "byteOffset": 2359152,
      "componentType": 5126,
      "count": 65532,
      "max": [
        0.9999933242797852,
        0.9999972581863403,
        0.9999997615814209
      ],
      "min": [
        -0.9999884366989136,
        -0.9999958276748657,
        -0.999057412147522
      ],
      "type": "VEC3"
    },
    {
      "bufferView": 1,
      "byteOffset": 524256,
      "componentType": 5126,
      "count": 65532,
      "max": [
        0.9965540170669556,
        0.9989399909973145
      ],
      "min": [
        0.0008229999803006649,
        6.299999949987978e-05
      ],
      "type": "VEC2"
    },
    {
      "bufferView": 0,
      "byteOffset": 1201764,
      "componentType": 5125,
      "count": 274884,
      "type": "SCALAR"
    },
    {
      "bufferView": 2,
      "byteOffset": 3145536,
      "componentType": 5126,
      "count": 65532,
      "max": [
        0.5316420197486877,
        0.8649060130119324,
        0.6163960099220276
      ],
      "min": [
        -0.5262839794158936,
        -0.9258610010147095,
        -0.17281599342823029
      ],
      "type": "VEC3"
    },
    {
      "bufferView": 2,
      "byteOffset": 3931920,
      "componentType": 5126,
      "count": 65532,
      "max": [
        0.9999802112579346,
        0.9999972581863403,
        0.9999953508377075
      ],
      "min": [
        -0.999991774559021,
        -0.9999608993530273,
        -0.9999935626983643
      ],
      "type": "VEC3"
    },
    {
      "bufferView": 1,
      "byteOffset": 1048512,
      "componentType": 5126,
      "count": 65532,
      "max": [
        0.9993289709091187,
        0.9995219707489014
      ],
      "min": [
        6.299999949987978e-05,
        6.299999949987978e-05
      ],
      "type": "VEC2"
    },
    {
      "bufferView": 0,
      "byteOffset": 2301300,
      "componentType": 5125,
      "count": 264513,
      "type": "SCALAR"
    },
    {
      "bufferView": 2,
      "byteOffset": 4718304,
      "componentType": 5126,
      "count": 44194,
      "max": [
        0.5317869782447815,
        0.847690999507904,
        0.5831519961357117
      ],
      "min": [
        -0.5245500206947327,
        -0.9248030185699463,
        -0.133760005235672
      ],
      "type": "VEC3"
    },
    {
      "bufferView": 2,
      "byteOffset": 5248632,
      "componentType": 5126,
      "count": 44194,
      "max": [
        0.9999854564666748,
        0.9999759197235107,
        0.9999995231628418
      ],
      "min": [
        -0.9999909400939941,
        -0.9999958276748657,
        -0.9998275637626648
      ],
      "type": "VEC3"
    },
    {
      "bufferView": 1,
      "byteOffset": 1572768,
      "componentType": 5126,
      "count": 44194,
      "max": [
        0.9989460110664368,
        0.9988390207290649
      ],
      "min": [
        6.299999949987978e-05,
        6.299999949987978e-05
      ],
      "type": "VEC2"
    },
    {
      "bufferView": 0,
      "byteOffset": 3359352,
      "componentType": 5125,
      "count": 180489,
      "type": "SCALAR"
    }
  ],
  "asset": {
    "extras": {
      "author": "SPLEEN VISION (https://sketchfab.com/spleen.vision)",
      "license": "CC-BY-4.0 (http://creativecommons.org/licenses/by/4.0/)",
      "source": "https://sketchfab.com/3d-models/tfsi-engine-1ee66fed927c4aa68afaea4fd5dfc782",
      "title": "TFSI engine"
    },
    "generator": "Sketchfab-13.11.0",
    "version": "2.0"
  },
  "bufferViews": [
    {
      "buffer": 0,
      "byteLength": 4081308,
      "name": "floatBufferViews",
      "target": 34963
    },
    {
      "buffer": 0,
      "byteLength": 1926320,
      "byteOffset": 4081308,
      "byteStride": 8,
      "name": "floatBufferViews",
      "target": 34962
    },
    {
      "buffer": 0,
      "byteLength": 5778960,
      "byteOffset": 6007628,
      "byteStride": 12,
      "name": "floatBufferViews",
      "target": 34962
    }
  ],
  "buffers": [
    {
      "byteLength": 11786588,
      "uri": "scene.bin"
    }
  ],
  "extensionsUsed": [
    "KHR_materials_unlit"
  ],
  "images": [
    {
      "uri": "textures/material_baseColor.jpeg"
    }
  ],
  "materials": [
    {
      "doubleSided": true,
      "extensions": {
        "KHR_materials_unlit": {}
      },
      "name": "material",
      "pbrMetallicRoughness": {
        "baseColorTexture": {
          "index": 0
        },
        "metallicFactor": 0.0
      }
    }
  ],
  "meshes": [
    {
      "name": "Object_0",
      "primitives": [
        {
          "attributes": {
            "NORMAL": 1,
            "POSITION": 0,
            "TEXCOORD_0": 2
          },
          "indices": 3,
          "material": 0,
          "mode": 4
        }
      ]
    },
    {
      "name": "Object_1",
      "primitives": [
        {
          "attributes": {
            "NORMAL": 5,
            "POSITION": 4,
            "TEXCOORD_0": 6
          },
          "indices": 7,
          "material": 0,
          "mode": 4
        }
      ]
    },
    {
      "name": "Object_2",
      "primitives": [
        {
          "attributes": {
            "NORMAL": 9,
            "POSITION": 8,
            "TEXCOORD_0": 10
          },
          "indices": 11,
          "material": 0,
          "mode": 4
        }
      ]
    },
    {
      "name": "Object_3",
      "primitives": [
        {
          "attributes": {
            "NORMAL": 13,
            "POSITION": 12,
            "TEXCOORD_0": 14
          },
          "indices": 15,
          "material": 0,
          "mode": 4
        }
      ]
    }
  ],
  "nodes": [
    {
      "children": [
        1
      ],
      "matrix": [
        1.0116157531738281,
        0.0,
        0.0,
        0.0,
        0.0,
        2.2462382024942065e-16,
        -1.0116157531738281,
        0.0,
        0.0,
        1.0116157531738281,
        2.2462382024942065e-16,
        0.0,
        0.0,
        0.0,
        0.0,
        1.0
      ],
      "name": "Sketchfab_model"
    },
    {
      "children": [
        2,
        3,
        4,
        5
      ],
      "name": "tfsi.obj.cleaner.materialmerger.gles"
    },
    {
      "mesh": 0,
      "name": "Object_2"
    },
    {
      "mesh": 1,
      "name": "Object_3"
    },
    {
      "mesh": 2,
      "name": "Object_4"
    },
    {
      "mesh": 3,
      "name": "Object_5"
    }
  ],
  "samplers": [
    {
      "magFilter": 9729,
      "minFilter": 9987,
      "wrapS": 10497,
      "wrapT": 10497
    }
  ],
  "scene": 0,
  "scenes": [
    {
      "name": "Sketchfab_Scene",
      "nodes": [
        0
      ]
    }
  ],
  "textures": [
    {
      "sampler": 0,
      "source": 0
    }
  ]
}
