{
  "accessors": [
    {
      "bufferView": 1,
      "componentType": 5126,
      "count": 65532,
      "max": [
        234.0135040283203,
        241.57249450683594,
        331.69146728515625
      ],
      "min": [
        122.8301010131836,
        49.14691162109375,
        251.69500732421875
      ],
      "type": "VEC3"
    },
    {
      "bufferView": 1,
      "byteOffset": 786384,
      "componentType": 5126,
      "count": 65532,
      "max": [
        1.0,
        1.0,
        1.0
      ],
      "min": [
        -1.0,
        -1.0,
        -1.0
      ],
      "type": "VEC3"
    },
    {
      "bufferView": 0,
      "componentType": 5125,
      "count": 82284,
      "type": "SCALAR"
    },
    {
      "bufferView": 1,
      "byteOffset": 1572768,
      "componentType": 5126,
      "count": 65534,
      "max": [
        264.12115478515625,
        302.0690002441406,
        428.07147216796875
      ],
      "min": [
        138.8921661376953,
        49.14691162109375,
        280.19500732421875
      ],
      "type": "VEC3"
    },
    {
      "bufferView": 1,
      "byteOffset": 2359176,
      "componentType": 5126,
      "count": 65534,
      "max": [
        1.0,
        1.0,
        1.0
      ],
      "min": [
        -1.0,
        -1.0,
        -1.0
      ],
      "type": "VEC3"
    },
    {
      "bufferView": 0,
      "byteOffset": 329136,
      "componentType": 5125,
      "count": 82326,
      "type": "SCALAR"
    },
    {
      "bufferView": 1,
      "byteOffset": 3145584,
      "componentType": 5126,
      "count": 65533,
      "max": [
        265.1968994140625,
        302.0690002441406,
        712.8350219726563
      ],
      "min": [
        132.39190673828125,
        49.14691162109375,
        186.29501342773438
      ],
      "type": "VEC3"
    },
    {
      "bufferView": 1,
      "byteOffset": 3931980,
      "componentType": 5126,
      "count": 65533,
      "max": [
        1.0,
        1.0,
        1.0
      ],
      "min": [
        -1.0,
        -1.0,
        -1.0
      ],
      "type": "VEC3"
    },
    {
      "bufferView": 0,
      "byteOffset": 658440,
      "componentType": 5125,
      "count": 90888,
      "type": "SCALAR"
    },
    {
      "bufferView": 1,
      "byteOffset": 4718376,
      "componentType": 5126,
      "count": 65533,
      "max": [
        265.1968994140625,
        200.75076293945313,
        590.8350219726563
      ],
      "min": [
        122.8301010131836,
        51.199989318847656,
        474.4549865722656
      ],
      "type": "VEC3"
    },
    {
      "bufferView": 1,
      "byteOffset": 5504772,
      "componentType": 5126,
      "count": 65533,
      "max": [
        0.9999961853027344,
        0.9999871253967285,
        1.0
      ],
      "min": [
        -0.9999991655349731,
        -0.9999979734420776,
        -1.0
      ],
      "type": "VEC3"
    },
    {
      "bufferView": 0,
      "byteOffset": 1021992,
      "componentType": 5125,
      "count": 72900,
      "type": "SCALAR"
    },
    {
      "bufferView": 1,
      "byteOffset": 6291168,
      "componentType": 5126,
      "count": 28123,
      "max": [
        246.6375732421875,
        241.57249450683594,
        712.8350219726563
      ],
      "min": [
        132.39190673828125,
        49.48883056640625,
        186.29501342773438
      ],
      "type": "VEC3"
    },
    {
      "bufferView": 1,
      "byteOffset": 6628644,
      "componentType": 5126,
      "count": 28123,
      "max": [
        1.0,
        1.0,
        1.0
      ],
      "min": [
        -1.0,
        -1.0,
        -1.0
      ],
      "type": "VEC3"
    },
    {
      "bufferView": 0,
      "byteOffset": 1313592,
      "componentType": 5125,
      "count": 42228,
      "type": "SCALAR"
    },
    {
      "bufferView": 1,
      "byteOffset": 6966120,
      "componentType": 5126,
      "count": 61371,
      "max": [
        313.6808166503906,
        320.4966125488281,
        669.9450073242188
      ],
      "min": [
        79.01349639892578,
        63.030059814453125,
        223.31500244140625
      ],
      "type": "VEC3"
    },
    {
      "bufferView": 1,
      "byteOffset": 7702572,
      "componentType": 5126,
      "count": 61371,
      "max": [
        1.0,
        1.0,
        1.0
      ],
      "min": [
        -1.0,
        -1.0,
        -1.0
      ],
      "type": "VEC3"
    },
    {
      "bufferView": 0,
      "byteOffset": 1482504,
      "componentType": 5125,
      "count": 87096,
      "type": "SCALAR"
    }
  ],
  "asset": {
    "extras": {
      "author": "Víctor Hernández (https://sketchfab.com/victorhugohc)",
      "license": "CC-BY-4.0 (http://creativecommons.org/licenses/by/4.0/)",
      "source": "https://sketchfab.com/3d-models/engine-7ac7605efbe1450780ea38d5d906374a",
      "title": "Engine"
    },
    "generator": "Sketchfab-12.67.0",
    "version": "2.0"
  },
  "bufferViews": [
    {
      "buffer": 0,
      "byteLength": 1830888,
      "name": "floatBufferViews",
      "target": 34963
    },
    {
      "buffer": 0,
      "byteLength": 8439024,
      "byteOffset": 1830888,
      "byteStride": 12,
      "name": "floatBufferViews",
      "target": 34962
    }
  ],
  "buffers": [
    {
      "byteLength": 10269912,
      "uri": "scene.bin"
    }
  ],
  "extensionsRequired": [
    "KHR_materials_pbrSpecularGlossiness"
  ],
  "extensionsUsed": [
    "KHR_materials_pbrSpecularGlossiness"
  ],
  "materials": [
    {
      "doubleSided": true,
      "extensions": {
        "KHR_materials_pbrSpecularGlossiness": {
          "diffuseFactor": [
            1.0,
            1.0,
            1.0,
            1.0
          ],
          "glossinessFactor": 1.0,
          "specularFactor": [
            1.0,
            1.0,
            1.0
          ]
        }
      },
      "name": "Material.001"
    },
    {
      "alphaMode": "BLEND",
      "doubleSided": true,
      "extensions": {
        "KHR_materials_pbrSpecularGlossiness": {
          "diffuseFactor": [
            1.0,
            1.0,
            1.0,
            0.0455625057220459
          ],
          "glossinessFactor": 0.4,
          "specularFactor": [
            1.0,
            1.0,
            1.0
          ]
        }
      },
      "name": "Material.002"
    }
  ],
  "meshes": [
    {
      "name": "Ensamblaje Motor_0",
      "primitives": [
        {
          "attributes": {
            "NORMAL": 1,
            "POSITION": 0
          },
          "indices": 2,
          "material": 0,
          "mode": 4
        }
      ]
    },
    {
      "name": "Ensamblaje Motor_0",
      "primitives": [
        {
          "attributes": {
            "NORMAL": 4,
            "POSITION": 3
          },
          "indices": 5,
          "material": 0,
          "mode": 4
        }
      ]
    },
    {
      "name": "Ensamblaje Motor_0",
      "primitives": [
        {
          "attributes": {
            "NORMAL": 7,
            "POSITION": 6
          },
          "indices": 8,
          "material": 0,
          "mode": 4
        }
      ]
    },
    {
      "name": "Ensamblaje Motor_0",
      "primitives": [
        {
          "attributes": {
            "NORMAL": 10,
            "POSITION": 9
          },
          "indices": 11,
          "material": 0,
          "mode": 4
        }
      ]
    },
    {
      "name": "Ensamblaje Motor_0",
      "primitives": [
        {
          "attributes": {
            "NORMAL": 13,
            "POSITION": 12
          },
          "indices": 14,
          "material": 0,
          "mode": 4
        }
      ]
    },
    {
      "name": "Ensamblaje Motor_1",
      "primitives": [
        {
          "attributes": {
            "NORMAL": 16,
            "POSITION": 15
          },
          "indices": 17,
          "material": 1,
          "mode": 4
        }
      ]
    }
  ],
  "nodes": [
    {
      "children": [
        1
      ],
      "matrix": [
        1.0,
        0.0,
        0.0,
        0.0,
        0.0,
        2.220446049250313e-16,
        -1.0,
        0.0,
        0.0,
        1.0,
        2.220446049250313e-16,
        0.0,
        0.0,
        0.0,
        0.0,
        1.0
      ],
      "name": "Sketchfab_model"
    },
    {
      "children": [
        2,
        4
      ],
      "name": "Root"
    },
    {
      "children": [
        3
      ],
      "name": "Sun"
    },
    {
      "name": "Sun"
    },
    {
      "children": [
        5,
        6,
        7,
        8,
        9,
        10
      ],
      "matrix": [
        0.012140000000000001,
        0.0,
        0.0,
        0.0,
        0.0,
        -0.0,
        0.012140000000000001,
        0.0,
        0.0,
        -0.012140000000000001,
        -0.0,
        0.0,
        0.0,
        3.69639,
        0.0,
        1.0
      ],
      "name": "Ensamblaje Motor"
    },
    {
      "mesh": 0,
      "name": "Ensamblaje Motor_0"
    },
    {
      "mesh": 1,
      "name": "Ensamblaje Motor_0"
    },
    {
      "mesh": 2,
      "name": "Ensamblaje Motor_0"
    },
    {
      "mesh": 3,
      "name": "Ensamblaje Motor_0"
    },
    {
      "mesh": 4,
      "name": "Ensamblaje Motor_0"
    },
    {
      "mesh": 5,
      "name": "Ensamblaje Motor_1"
    }
  ],
  "scene": 0,
  "scenes": [
    {
      "name": "Sketchfab_Scene",
      "nodes": [
        0
      ]
    }
  ]
}
